name analog
datacolumns 19
datarows 18
range 0.1835 0.192
endheader
time	ground_force_vx	ground_force_vy	ground_force_vz	ground_force_px	ground_force_py	ground_force_pz	l_ground_force_vx	l_ground_force_vy	l_ground_force_vz	l_ground_force_px	l_ground_force_py	l_ground_force_pz	ground_torque_x	ground_torque_y	ground_torque_z	l_ground_torque_x	l_ground_torque_y	l_ground_torque_z
0.1835	-0.0	-0.0	-0.0	-8.204736709594727	25.185457229614254	-128.24240112304688	7.56909704208374	-5.475944519042969	-385.5010070800781	-0.0	-0.0	-0.0	-0.0	-0.0	-0.0	114369.1875	10270.5830078125	1724.5064697265625
0.184	-0.0	-0.0	-0.0	-8.40487289428711	24.886449813842773	-129.3016357421875	7.312216758728027	-5.5359416007995605	-383.5924072265625	-0.0	-0.0	-0.0	-0.0	-0.0	-0.0	113614.40625	9938.1044921875	1549.495361328125
0.1845	-0.0	-0.0	-0.0	-8.82236385345459	24.6662654876709	-132.08929443359375	7.699004173278809	-5.475944519042969	-383.8443908691406	-0.0	-0.0	-0.0	-0.0	-0.0	-0.0	113104.046875	9870.421875	1592.0238037109375
0.185	-0.0	-0.0	-0.0	-8.615738868713379	24.229631423950195	-133.11154174804688	8.053958892822266	-4.936694145202637	-379.6383666992188	-0.0	-0.0	-0.0	-0.0	-0.0	-0.0	113126.4375	9680.95703125	1642.2568359375
0.1855	-0.0	-0.0	-0.0	-8.742630004882812	25.017641067504883	-133.29678344726562	8.011823654174805	-4.681049346923828	-379.4913024902344	-0.0	-0.0	-0.0	-0.0	-0.0	-0.0	112778.6171875	9359.9462890625	1562.5618896484375
0.186	-0.0	-0.0	-0.0	-8.512103080749512	24.52012825012207	-135.65782165527344	7.983970642089844	-4.31858491897583	-378.2400512695313	-0.0	-0.0	-0.0	-0.0	-0.0	-0.0	112618.6484375	9680.40625	1624.93408203125
0.1865	-0.0	-0.0	-0.0	-9.268694877624512	24.520050048828125	-136.29103088378906	8.390960693359375	-3.5692713260650635	-378.5523071289063	-0.0	-0.0	-0.0	-0.0	-0.0	-0.0	113032.6484375	9217.5810546875	1713.3486328125
0.187	-0.0	-0.0	-0.0	-9.046831130981444	24.16347312927246	-136.08285522460938	8.541350364685059	-3.691420316696167	-380.7456359863281	-0.0	-0.0	-0.0	-0.0	-0.0	-0.0	112995.1796875	9300.8017578125	1414.5367431640625
0.1875	-0.0	-0.0	-0.0	-9.893280029296877	24.17992401123047	-136.43536376953125	8.188480377197266	-3.2589128017425537	-380.2261352539063	-0.0	-0.0	-0.0	-0.0	-0.0	-0.0	113451.828125	9205.1845703125	1550.545166015625
0.188	-0.0	-0.0	-0.0	-9.902366638183594	23.976078033447266	-136.15260314941406	8.063729286193848	-2.790642261505127	-381.41448974609375	-0.0	-0.0	-0.0	-0.0	-0.0	-0.0	113895.734375	9256.8623046875	1479.2474365234375
0.1885	-0.0	-0.0	-0.0	-10.473125457763672	23.41446304321289	-135.62109375	7.886363506317139	-2.994080066680908	-383.5425720214844	-0.0	-0.0	-0.0	-0.0	-0.0	-0.0	114317.921875	9084.8193359375	1425.7474365234375
0.189	-0.0	-0.0	-0.0	-10.321764945983888	23.120643615722656	-132.5831756591797	7.540416717529297	-3.0117275714874268	-386.8269348144531	-0.0	-0.0	-0.0	-0.0	-0.0	-0.0	114340.9609375	9223.6728515625	1194.1116943359375
0.1895	-0.0	-0.0	-0.0	-9.956348419189451	22.18467140197754	-133.3974151611328	7.354243278503418	-2.932042598724365	-386.5453186035156	-0.0	-0.0	-0.0	-0.0	-0.0	-0.0	114659.734375	9300.3251953125	1176.4144287109375
0.19	-0.0	-0.0	-0.0	-9.008559226989746	21.648242950439453	-130.71121215820312	6.971615791320801	-3.0375678539276123	-388.0854797363281	-0.0	-0.0	-0.0	-0.0	-0.0	-0.0	114758.4921875	9256.6767578125	1146.5452880859375
0.1905	-0.0	-0.0	-0.0	-9.044954299926758	21.089242935180664	-127.39494323730467	7.105481624603272	-3.162418842315674	-388.42620849609375	-0.0	-0.0	-0.0	-0.0	-0.0	-0.0	115474.125	9461.3896484375	929.5994262695312
0.191	-0.0	-0.0	-0.0	-8.921051025390625	20.41946220397949	-124.7065887451172	7.168467998504639	-3.3221631050109863	-388.9548950195313	-0.0	-0.0	-0.0	-0.0	-0.0	-0.0	115402.5546875	9534.3095703125	915.2597045898438
0.1915	-0.0	-0.0	-0.0	-8.07540225982666	19.392555236816406	-122.4518814086914	6.919441223144531	-3.267902374267578	-386.8599853515625	-0.0	-0.0	-0.0	-0.0	-0.0	-0.0	115074.2578125	9724.69140625	891.1709594726562
0.192	-0.0	-0.0	-0.0	-7.298315048217773	18.695980072021484	-118.9209976196289	6.847569942474365	-3.171197891235352	-386.92626953125	-0.0	-0.0	-0.0	-0.0	-0.0	-0.0	114895.859375	9621.0029296875	751.2964477539062
